<svg width="579.2375px" height="227.6px" xmlns="http://www.w3.org/2000/svg" viewBox="-39.61874999999998 -38.8 579.2375 227.6" style="background: rgba(0, 0, 0, 0);" preserveAspectRatio="xMidYMid"><defs><filter id="editing-hole" x="-100%" y="-100%" width="300%" height="300%"><feFlood flood-color="#00ffb8" result="black"></feFlood><feMorphology operator="dilate" radius="2" in="SourceGraphic" result="erode"></feMorphology><feGaussianBlur in="erode" stdDeviation="4" result="blur"></feGaussianBlur><feOffset in="blur" dx="2" dy="2" result="offset"></feOffset><feComposite operator="atop" in="offset" in2="black" result="merge"></feComposite><feComposite operator="in" in="merge" in2="SourceGraphic" result="inner-shadow"></feComposite></filter></defs><g filter="url(#editing-hole)"><g transform="translate(42.82497787475586, 120.91500353813171)"><path d="M5.50-81.22L5.50-81.22L5.50-81.22Q7.34-84.89 11.33-86.92L11.33-86.92L11.33-86.92Q15.33-88.95 20.83-88.95L20.83-88.95L20.83-88.95Q29.48-88.95 34.65-82.73L34.65-82.73L34.65-82.73Q39.82-76.50 39.82-62.88L39.82-62.88L39.82-16.11L69.82-86.33L85.28-86.33L88.82-20.04L88.42-16.24L119.60-86.33L137.55-86.33L95.63 0L67.73 0L65.11-39.82L47.82 0L16.24 0L12.31-62.88L12.31-62.88Q11.92-69.95 10.02-74.60L10.02-74.60L10.02-74.60Q8.12-79.26 5.50-81.22ZM132.97-31.96L132.97-31.96L132.97-31.96Q132.97-56.72 145.80-72.31L145.80-72.31L145.80-72.31Q159.43-89.21 183.14-89.21L183.14-89.21L183.14-89.21Q200.30-89.21 208.94-80.89L208.94-80.89L208.94-80.89Q217.59-72.57 217.59-55.02L217.59-55.02L217.59-55.02Q217.59-28.30 203.97-12.71L203.97-12.71L203.97-12.71Q190.47 2.62 167.81 2.62L167.81 2.62L167.81 2.62Q150.13 2.62 141.55-6.22L141.55-6.22L141.55-6.22Q132.97-15.07 132.97-31.96ZM167.42-59.08L167.42-59.08L167.42-59.08Q161.52-35.50 161.52-16.90L161.52-16.90L161.52-16.90Q161.52-12.45 163.03-9.56L163.03-9.56L163.03-9.56Q164.54-6.68 168.53-6.68L168.53-6.68L168.53-6.68Q172.53-6.68 175.02-8.58L175.02-8.58L175.02-8.58Q177.50-10.48 179.47-14.80L179.47-14.80L179.47-14.80Q182.61-21.88 185.56-36.88L185.56-36.88L185.56-36.88Q188.51-51.88 188.77-58.10L188.77-58.10L188.77-58.10Q189.03-64.32 189.03-69.04L189.03-69.04L189.03-69.04Q189.03-73.75 187.59-76.77L187.59-76.77L187.59-76.77Q186.15-79.78 182.29-79.78L182.29-79.78L182.29-79.78Q178.42-79.78 175.80-77.42L175.80-77.42L175.80-77.42Q170.95-72.97 167.42-59.08ZM233.57 0L241.17-38.51L241.17-38.51Q237.37-74.02 224.01-81.61L224.01-81.61L224.01-81.61Q226.76-85.02 231.22-86.92L231.22-86.92L231.22-86.92Q235.67-88.82 241.04-88.82L241.04-88.82L241.04-88.82Q246.41-88.82 250.47-86.92L250.47-86.92L250.47-86.92Q254.53-85.02 257.15-80.96L257.15-80.96L257.15-80.96Q262.13-73.23 262.13-54.76L262.13-54.76L262.13-45.33L262.13-45.33Q269.99-68.38 277.85-78.34L277.85-78.34L277.85-78.34Q285.84-88.56 295.80-88.56L295.80-88.56L295.80-88.56Q299.73-88.56 302.35-86.53L302.35-86.53L302.35-86.53Q304.97-84.50 306.28-81.48L306.28-81.48L306.28-81.48Q296.19-77.03 286.50-64.19L286.50-64.19L286.50-64.19Q276.80-51.35 270.51-33.41L270.51-33.41L262.79 0L233.57 0ZM310.34 0L295.27 0L318.99-86.46L346.36-86.46L352.39-37.07L376.76-86.46L399.68-86.46L402.04-21.75L402.04-21.75Q402.56-8.91 408.85-4.98L408.85-4.98L408.85-4.98Q407.41-2.36 403.22 0.13L403.22 0.13L403.22 0.13Q399.03 2.62 393.46 2.62L393.46 2.62L393.46 2.62Q387.89 2.62 384.62 1.05L384.62 1.05L384.62 1.05Q381.34-0.52 379.51-3.14L379.51-3.14L379.51-3.14Q376.23-7.86 376.23-16.90L376.23-16.90L376.23-57.38L350.43 0L334.18 0L325.01-58.82L310.34 0Z" fill="#356c23"></path></g></g><style>text {
  font-size: 64px;
  font-family: Arial Black;
  dominant-baseline: central;
  text-anchor: middle;
}</style></svg>